<mxfile host="Electron" modified="2023-07-16T17:32:49.162Z" agent="Mozilla/5.0 (Macintosh; Intel Mac OS X 10_15_7) AppleWebKit/537.36 (KHTML, like Gecko) draw.io/21.2.1 Chrome/112.0.5615.87 Electron/24.1.2 Safari/537.36" etag="ZPFeVZlgvLPmISp3pTaB" version="21.2.1" type="device">
  <diagram name="Page-1" id="74b105a0-9070-1c63-61bc-23e55f88626e">
    <mxGraphModel dx="1080" dy="721" grid="1" gridSize="10" guides="1" tooltips="1" connect="1" arrows="1" fold="1" page="1" pageScale="1.5" pageWidth="1169" pageHeight="826" background="none" math="0" shadow="0">
      <root>
        <mxCell id="0" style=";html=1;" />
        <mxCell id="1" style=";html=1;" parent="0" />
        <mxCell id="opDxLnZaXLkhxpy1dngz-1" value="" style="shape=image;verticalLabelPosition=bottom;labelBackgroundColor=default;verticalAlign=top;aspect=fixed;imageAspect=0;image=data:image/png,iVBORw0KGgoAAAANSUhEUgAAAgAAAAIACAYAAAD0eNT6AAAMPWlDQ1BJQ0MgUHJvZmlsZQAASImVVwdYU8kWnluSkEBooUsJvQkiNYCUEFrovdkISYBQYgwEFXtZVHDtogI2dFVEwQqIBUUUC4ti74sFFWVdLNiVNymg677yvck3M3/+OfOfM+fOLQOA2gmOSJSHqgOQLywUx4UE0FNS0+ikpwADmkAX/mw53AIRMyYmAsAy1P+9vLsOEGl/xUGq9c/x/1o0ePwCLgBIDMQZvAJuPsQHAcCruCJxIQBEKW8+pVAkxbACLTEMEOJFUpwlx1VSnCHHe2U2CXEsiNsAUFLhcMRZAKhegjy9iJsFNVT7IXYS8gRCANToEPvm50/iQZwOsQ20EUEs1Wdk/KCT9TfNjGFNDidrGMvXIitKgYICUR5n2v+Zjv9d8vMkQz6sYFXJFofGSdcM83Yzd1K4FKtA3CfMiIqGWBPiDwKezB5ilJItCU2U26OG3AIWzBnQgdiJxwkMh9gQ4mBhXlSEgs/IFASzIYY7BJ0qKGQnQKwH8SJ+QVC8wmazeFKcwhfakClmMRX8WY5Y5lfq674kN5Gp0H+dzWcr9DHV4uyEZIgpEFsUCZKiIFaF2LEgNz5cYTOmOJsVNWQjlsRJ47eAOI4vDAmQ62NFmeLgOIV9aX7B0HqxzdkCdpQC7y/MTgiV5wdr43Jk8cO1YJf4QmbikA6/ICViaC08fmCQfO3YM74wMV6h80FUGBAnn4tTRHkxCnvcjJ8XIuXNIHYtKIpXzMWTCuGGlOvjmaLCmAR5nHhxDicsRh4PvhxEABYIBHQggTUDTAI5QNDZ19gH/8lHggEHiEEW4AMHBTM0I1k2IoRtPCgGf0LEBwXD8wJko3xQBPmvw6y8dQCZstEi2Yxc8ATifBAO8uB/iWyWcNhbEngMGcE/vHNg5cJ482CVjv97foj9zjAhE6FgJEMe6WpDlsQgYiAxlBhMtMUNcF/cG4+ArT+szjgD9xxax3d7whNCF+Eh4Rqhm3BromCe+KcoI0E31A9W5CLjx1zgVlDTDQ/AfaA6VMZ1cAPggLtCP0zcD3p2gyxLEbc0K/SftP+2gh+uhsKO7ERGybpkf7LNzzNV7VTdhlWkuf4xP/JYM4bzzRoe+dk/64fs82Af/rMltgg7gLVjJ7Fz2FGsEdCxFqwJ68COSfHw7nos211D3uJk8eRCHcE//A1dWWkmC5xqnXqdvsjHCvlTpc9owJokmiYWZGUX0pnwjcCns4Vcx5F0ZydnFwCk7xf54+tNrOy9geh0fOfm/wGAT8vg4OCR71xYCwD7PODtf/g7Z8OArw5lAM4e5krERXIOlzYE+JRQg3eaPjAG5sAGrscZuANv4A+CQBiIBgkgFUyA0WfDfS4GU8AMMBeUgDKwHKwBFWAT2Ap2gj1gP2gER8FJcAZcAJfANXAH7p4e8AL0g3fgM4IgJISK0BB9xASxROwRZ4SB+CJBSAQSh6Qi6UgWIkQkyAxkPlKGrEQqkC1IDbIPOYycRM4hXcgt5AHSi7xGPqEYqoJqoUaoFToKZaBMNBxNQMejWehktBhdgC5F16HV6G60AT2JXkCvod3oC3QAA5gypoOZYg4YA2Nh0VgalomJsVlYKVaOVWN1WDO8zlewbqwP+4gTcRpOxx3gDg7FE3EuPhmfhS/BK/CdeAPehl/BH+D9+DcClWBIsCd4EdiEFEIWYQqhhFBO2E44RDgN76UewjsikahDtCZ6wHsxlZhDnE5cQtxArCeeIHYRHxEHSCSSPsme5EOKJnFIhaQS0nrSblIL6TKph/RBSVnJRMlZKVgpTUmoNE+pXGmX0nGly0pPlT6T1cmWZC9yNJlHnkZeRt5GbiZfJPeQP1M0KNYUH0oCJYcyl7KOUkc5TblLeaOsrGym7KkcqyxQnqO8Tnmv8lnlB8ofVTRV7FRYKuNUJCpLVXaonFC5pfKGSqVaUf2padRC6lJqDfUU9T71gypN1VGVrcpTna1aqdqgeln1pRpZzVKNqTZBrVitXO2A2kW1PnWyupU6S52jPku9Uv2w+g31AQ2axmiNaI18jSUauzTOaTzTJGlaaQZp8jQXaG7VPKX5iIbRzGksGpc2n7aNdprWo0XUstZia+VolWnt0erU6tfW1HbVTtKeql2pfUy7WwfTsdJh6+TpLNPZr3Nd55OukS5Tl6+7WLdO97Lue70Rev56fL1SvXq9a3qf9On6Qfq5+iv0G/XvGeAGdgaxBlMMNhqcNugboTXCewR3ROmI/SNuG6KGdoZxhtMNtxp2GA4YGRuFGImM1hudMuoz1jH2N84xXm183LjXhGbiayIwWW3SYvKcrk1n0vPo6+ht9H5TQ9NQU4npFtNO089m1maJZvPM6s3umVPMGeaZ5qvNW837LUwsIi1mWNRa3LYkWzIssy3XWrZbvreytkq2WmjVaPXMWs+abV1sXWt914Zq42cz2aba5qot0ZZhm2u7wfaSHWrnZpdtV2l30R61d7cX2G+w7xpJGOk5UjiyeuQNBxUHpkORQ63DA0cdxwjHeY6Nji9HWYxKG7ViVPuob05uTnlO25zujNYcHTZ63ujm0a+d7Zy5zpXOV12oLsEus12aXF652rvyXTe63nSjuUW6LXRrdfvq7uEudq9z7/Ww8Ej3qPK4wdBixDCWMM56EjwDPGd7HvX86OXuVei13+svbwfvXO9d3s/GWI/hj9k25pGPmQ/HZ4tPty/dN913s2+3n6kfx6/a76G/uT/Pf7v/U6YtM4e5m/kywClAHHAo4D3LizWTdSIQCwwJLA3sDNIMSgyqCLofbBacFVwb3B/iFjI95EQoITQ8dEXoDbYRm8uuYfeHeYTNDGsLVwmPD68IfxhhFyGOaI5EI8MiV0XejbKMEkY1RoNodvSq6Hsx1jGTY47EEmNjYitjn8SNjpsR1x5Pi58Yvyv+XUJAwrKEO4k2iZLE1iS1pHFJNUnvkwOTVyZ3p4xKmZlyIdUgVZDalEZKS0rbnjYwNmjsmrE949zGlYy7Pt56/NTx5yYYTMibcGyi2kTOxAPphPTk9F3pXzjRnGrOQAY7oyqjn8viruW+4PnzVvN6+T78lfynmT6ZKzOfZflkrcrqzfbLLs/uE7AEFYJXOaE5m3Le50bn7sgdzEvOq89Xyk/PPyzUFOYK2yYZT5o6qUtkLyoRdU/2mrxmcr84XLy9ACkYX9BUqAU/5DskNpJfJA+KfIsqiz5MSZpyYKrGVOHUjml20xZPe1ocXPzbdHw6d3rrDNMZc2c8mMmcuWUWMitjVuts89kLZvfMCZmzcy5lbu7c3+c5zVs57+385PnNC4wWzFnw6JeQX2pLVEvEJTcWei/ctAhfJFjUudhl8frF30p5pefLnMrKy74s4S45/+voX9f9Org0c2nnMvdlG5cTlwuXX1/ht2LnSo2VxSsfrYpc1bCavrp09ds1E9ecK3ct37SWslaytntdxLqm9Rbrl6//UpFdca0yoLK+yrBqcdX7DbwNlzf6b6zbZLSpbNOnzYLNN7eEbGmotqou30rcWrT1ybakbe2/MX6r2W6wvWz71x3CHd0743a21XjU1Owy3LWsFq2V1PbuHrf70p7APU11DnVb6nXqy/aCvZK9z/el77u+P3x/6wHGgbqDlgerDtEOlTYgDdMa+huzG7ubUpu6Docdbm32bj50xPHIjqOmRyuPaR9bdpxyfMHxwZbiloETohN9J7NOPmqd2HrnVMqpq22xbZ2nw0+fPRN85lQ7s73lrM/Zo+e8zh0+zzjfeMH9QkOHW8eh391+P9Tp3tlw0eNi0yXPS81dY7qOX/a7fPJK4JUzV9lXL1yLutZ1PfH6zRvjbnTf5N18divv1qvbRbc/35lzl3C39J76vfL7hver/7D9o77bvfvYg8AHHQ/jH955xH304nHB4y89C55Qn5Q/NXla88z52dHe4N5Lz8c+73khevG5r+RPjT+rXtq8PPiX/18d/Sn9Pa/ErwZfL3mj/2bHW9e3rQMxA/ff5b/7/L70g/6HnR8ZH9s/JX96+nnKF9KXdV9tvzZ/C/92dzB/cFDEEXNknwIYrGhmJgCvdwBATQWABs9nlLHy85+sIPIzqwyB/4TlZ0RZcQegDn6/x/bBr5sbAOzdBo9fUF9tHAAxVAASPAHq4jJch85qsnOltBDhOWBz1NeM/Azwb4r8zPlD3D/3QKrqCn7u/wUKv3x0jkOA0QAAADhlWElmTU0AKgAAAAgAAYdpAAQAAAABAAAAGgAAAAAAAqACAAQAAAABAAACAKADAAQAAAABAAACAAAAAAAoMJe/AABAAElEQVR4Ae2dCbglVXW2G2iGZmxBBBoQNIwS5kFAgZZBcWAQiGEwghMqGohRQTFRDCYq/ppoBEFQwJCAgEwKgWiYBZpRwImoeBEFERCabma6+b+vvaf79u1z7606Z686tave9TzfPdOutdd+a9+z9qnatWuxSViuBKYp8K2kLaW1panDesmI535vsoRBAAIQ6IXAHG30+Ag9NuL57/X8jmH9Vo9YZgQWyyzetobrpL671En4TvovaysM2g0BCNSOwKOKqDMYuF3Pfyg9UrsoCWghAgwAFsJRqxerKJp9pQOk3aQlJQwCEIBADgR85OBq6XzpQukhCasZAQYA9doh/qX/NslJf7rE4XtBwCAAgawJzFX010keDHxHeljCakCAAUANdoJCWEP6iPQ+aXkJgwAEINBEAk+rUd+Uvigxb2DAe5gBwGB3wCtU/dHSO6WlBxsKtUMAAhCojMDzquk/pc9L91RWKxUtRIABwEI4Knuxnmr6tHSQtERltVIRBCAAgXoR8OmBC6TjpJ9KWIUESD4VwlZVPqd/jOTzYJ7Rv7iEQQACEGgrAf8IfZX0Xmkp6QbJEwixCghwBKACyMNVbKvHU6XNq6uSmiAAAQhkRcCnAzwY8KRBLJgAv0CDAcv9ctKXpRslkr8gYBCAAATGILCh3r9GOllaaYwyvJ2IAEcAEoEcw40T/oXSK8b4nLchAAEIQKA7gQf0ti+J9o8nLIAARwACoA673FuPP5JI/nGM8QwBCDSXgJc7v0o6uLlNHGzLmAQYw/9jcnuaxKV9MXzxCgEItIOAJ07vLzlXXS1hCQlwCiAhTLlaUvK5q3eldYs3CEAAAq0ncK4IHCZ5MSEsAQEGAAkgDrtYQY/fk3ZJ5xJPEIAABCAwgsAtev5GyTcfwvokwACgT4DDmy+jx/+Wpg+/5gECEIAABGIIeBCwmzQrxn17vDIJsP997XNUXthnev+u8AABCEAAAhMQ8JoqF0vMsZoA1EQfMwCYiND4n/sIyrckz/jHIAABCECgGgKvUzX+4eUfYFiPBLgKoEdww5t9VY9etQqDAAQgAIFqCWyk6taVfDQA64EAA4AeoA1v8kk9fqL3zdkSAhCAAAT6JODF1rza6g/69NPKzZkE2Ntu31mbeYEKTqH0xo+tIAABCKQksJecfT+lwzb4YgBQfi9P1SZ3Si8vv2nYFs/K80+ku6WHpD9Jjw3rBT1iEIAABHoh4HPs/s5beVir6XFT6S+lOk3Ce1jxbCb9QcIgEEbAE09eHLCeU/2XSe+W/I/IRBhBwCAAgcoI+DvH3z3+DrpU8nfSoL8XL1cM/KgVBCyGwGFyO8hOfq3qf5f0EgmDAAQgUBcCPkpwmORTo4P8jvw71Y9BIDmB9eTRC08MonP73NZrkrcIhxCAAATSE9hBLr0q6iC+K59RvZ4YiEEgGQEfVrpeqrpD+xc/nTnZbsQRBCBQIQF/d10jVf296TlanBatcEc3vSpf619lJ56p+j4gcT6r6T2L9kGg2QT8HXa49LhU5Xeo78iKQaBvAi+TB8+qr6rzXqm61uo7ahxAAAIQqA+BaQrlCqmq79EnVdc69Wk+keRK4CwFXlWnPUV1+ZbCGAQgAIGmEfDCc149tarvU9YFaFoPqrg9u1XUWX2tPrNXK965VAcBCAyEgE9vPi9VMRDYfyAtpNLsCXiRi/+TojvpHNVxUPa0aAAEIACB4gScmP3DJ/r79XeqY4XiYVESAn8m8Bk9RHdO+z8C4BCAAARaSMCLCFXxHfuVFrKlyX0Q2FDbPitFd85/7CNGNoUABCCQOwHP1o/+nvVR1m1yB0X81RG4SlVFd8pzqmsONUEAAhCoLYEzFFn09+1tqsOTEDEIjEvgUH0a3RnvUx1eOhODAAQg0HYCPkf/Kyn6e/eotoOm/eMTWEUf+65SkR3Rh6N2Gj8MPoUABCDQKgKvVmujrwx4QnWs2SqqNLYUgW+qdGTyt+/Pl4qIwhCAAATaQeA4NTP6+/e77UBJK8sS2FkbzJUiO+Cv5X9K2cAoDwEIQKAFBJZSG38hRX4H2/deLWBJE0sQcMf7mRTd8d5QIiaKQgACEGgbgelqcPT3sOdgLdc2sLR3bAKf1EfRnY5Z/2Pz5xMIQAACHQJn6En09/EXO5Xx2G4Cf6HmPy1FdjjfCWv1dmOm9RCAAAQKEXipSj0iRX4ne8LhZoWioVCjCVRxhyqvfY1BAAIQgEAxAu9UscgBgH3fKC1eLBxKNZGA1+CP7mQ3qQ46WRN7D22CAASiCCwmx9dI0d/P/DiL2oM19+uFeP4Q3MF8mGnzmnMgPAhAAAJ1JLCxgopekp3Ts3Xc8xXE9HXVET26ZKJJBTuSKiAAgcYSOF4ti/6ePrux9GhYVwLb693oa/651KQret6EAAQgUJjAMir5Syl6EPD6whFRMGsCkxX9nVJ0h2Kxiay7CcFDAAI1IbCH4oj+vva9CDzYwBpOoIrbT7LcZMM7Ec2DAAQqJfCfqi16EPDPlbaIyionsI5qnC1FdiRuOFH5bqVCCECg4QRWU/sekyK/u5+T/1c1nGOrm/e94A7kzsktJ1vdxWg8BCAQROB98hs5ALDvayVfgog1jMB+ak9057lVdSzRMG40BwIQgEAdCDgx3yBFf4+/qw6NJYZ0BFaQq99JkR1njvxvnS5kPEEAAhCAwCgCm+q111eJ/C5/VP69HDHWEAJfUTsiO4x9uw4MAhCAAARiCXxB7qO/z8+MbQLeqyLgX+UvSJEdxkcXfJQBgwAEIACBWALLyv1vpMjvdPt+XWwz8B5NwOfjfV4+uqPsH90Q/EMAAhCAwHwCb9az6O/1X6iOpebXyJPsCBypiKM7ia8swCAAAQhAoFoC56m66O/3T1XbJGpLRWBNOfI1+ZEd5En5XydVwPiBAAQgAIHCBKap5Ewp8jv+Gflfv3BEFKwNge8qksiOYd9eVRCDAAQgAIHBEPhbVRv9Pf/DwTSNWnsl8JYKOoXvJ+D7CmAQgAAEIDAYAour2luk6EHA2wfTPGotS8AzRIekyA7hOwn6joIYBCAAAQgMlsBWqj76Sq+HVMdLBttMai9C4AQVikz+9v31IoFQBgIQgAAEKiHwr6ol+nv/G5W0hEp6JrCZtoxeJepB1TG15wjZEAIQgAAEUhNYXg7vlyIHAT7y+5rUgeMvDQGvE32jFNkB7PvANOHiBQIQgAAEEhLYV76iv//vVh1LJowZV4kIvF9+onf+FYlixQ0EIAABCKQncLFcRueBj6cPG4/9EKjiXtFPK8C/6CdItoUABCAAgVACL5f32VLkIOAp+X9FaCtwXorAf6l05A6372NLRURhCEAAAhAYBIG/V6XR+eCyQTSMOhcl8PoKdvZPVQfnfRZlzzsQgAAE6kbA94C5Q4oeBPxV3RretniWUYN/FbyjPfNzp7aBpb0QgAAEMiawnWKfI0UOAh6Q/xUzZpR96J8N3sHuPN/MnhINgAAEINA+AieqyZEDAPv+Wvuw1qPFGyuMZ6XIHfxH+V+5Hs0lCghAAAIQKEFgJZX1r/TIHOGjDNuWiImiCQj4mv9rpMgda9/vSBArLiAAAQhAYDAE3qZqo/PE7arD8w6wigi8U/VE79QrK2oL1UAAAhCAQByB/5br6Hzx4bjw8TySwEv14hEpcof6HtAbjqyU5xCAAAQgkCUBX7Pva/cjc8Ys+V87SzqZBX2G4o3ckfZ9nIRBAAIQgEAzCHj1vui8cVEzUNW3FdMr2In3qI6l64uAyCAAAQhAoCQBr+PyEyl6ELBPybgoXpDAUir3cyl6B+5aMB6KQQACEIBAPgR8Jz+v6xKZQ34r/74zIZaYwD/KX+SOs+9vJ44ZdxCAAAQgUB8C31Ao0XnkS/VpbjMiWV/N8M14Infco/K/ajNw0QoIQAACEOhC4CV67yEpMpe8IP9bdKmbt3ok8ANtF7nD7Ps9PcbGZhCAAAQgkA+BtyvU6HwyQ3Usng+S+kZ6SAU76zrV4cWFMAhAAAIQaD6BH6qJ0YOADzYfY2wLqzhc85yasElsM/AOAQhAAAI1IuDTyl7vJXIQMFP+16hRm7ML5ZTgHeSd/y/ZUSFgCEAAAhDol8Cn5CByAGDf3+k3yLZuv6MaHn3Jxq9Vx5S2AqbdEIAABFpMwJeW/0KKHgS8scWMe2r6ZG11dwU7Zs+eomMjCEAAAhBoAoHpakT0AOBe1cEPzRK95ZgKdso5JeKhKAQgAAEINJPAGWpW9CDgc81El75V68rlk1LkDnlc/leXMAhAAAIQaDeBKm4wx2Tzgn3sUpWLTP72fUTBWCgGAQhAAALNJ/AuNTE671yvOrjcfJy+9FcV7ISbVAcLNIyzE/gIAhCAQMsIODFfI0UPAt7bMq6Fm7uiSv4+eAc8L/+bF46IghCAAAQg0BYCG6uhz0qRg4A/yf/L2gK0TDv/PRi8d+r/KxMQZSEAAQhAoFUEPqvWRg4A7Ps/WkW0QGO3VZk5UiT4++R/uQKxUAQCEIAABNpJYBk1+1dSZC6y793aiXfRVi+ht26XooHvtWjVvAMBCEAAAhBYiMDr9So6H/2f6lh6oVpb+uLDFcC+oKVsaTYEIAABCJQn8F/aJHoQ8JnyYTVri7XUnFnBoJ+Qf9eDQQACEIAABIoQWE2FHpMiBwG+GdGGRYJpapkLgwF75x3VVHi0CwIQgAAEwgi8T54jBwD2fWVY9DV3vHcFcG9THZ5jgEEAAhCAAATKEPDaADdI0YOAd5QJqgllPRvfs/Ijwfqqgm2aAIs2QAACEIDAQAhsqlq9fkxkrvqj/K88kNYNqNIvBQP1zvrqgNpGtRCAAAQg0BwCJ6gpkQMA+/5mc3CN35It9PELUiTQ38n/CuOHwacQgAAEIACBCQksqxJDUmTOmiv/O0mNNq/BP0OKBGnf+zeaIo2DAAQgAIEqCbxZlUXnrZ+qjiWrbFTVdfkufNEQv191o6gPAhCAAAQaT+B8tTA6fx3bVIprqGGPBwN8Uv7XaSpA2gUBCEAAAgMjME01e12ZyEHAU/L/yoG1MLDic4LBead8LDB+XEMAAhCAQLsJ/K2aHzkAsO/Lm4Z4zwqg3ak6JjcNHO2BAAQgAIHaEPA8tluk6EHAgbVpcZ+BTNH2vw4G5hmU2/cZJ5tDAAIQgAAEJiKwlQpEX8n2oOpYaaJAcvj8XxRk9Gjp6zmAIEYIQAACEGgEgX9VK6Lz2knRpLzUYaRtIud3SJGXNjwk/xtJXq1pzWGtqkcfqsEgAAEIQAAC/RLwUeaHpd9LDww7+7keI2805zp3lHzpfIhFDgDs+1rptSGRL3A6W08NasUFb/EMAhCAAAQgEEbAVwM4x0UvOOe5bV7S3qccklvkjXLeo2g/lDziRR0upbeWXvRt3oEABCAAAQiEEHDOqSLvrK56Zkm+KVFyizoC4EPwv5BWTh4xDiEAAQhAAALtIeD1bV4l/TZ1k6POk/tmPyT/1HsLfxCAAAQg0DYCy6nBX4todMQRgF0V6P9GBItPCEAAAhCAQEsJ7Kd2X5iy7akHAD4ncpe0Qcog8QUBCEAAAhBoOQHf5danAjwnIImlngT4j4qKO/El2TU4gQAEIAABCMwn4CvdfGviy+e/0+eTlEcA/Kvfv/6rmBnZZ7PZHAIQgAAEIJAdgTmKeDvp9hSRp5wE6NX4SP4p9go+IAABCEAAAosS8FH7U6QkuTvVKYC/UUB/v2isvAMBCEAAAhCAQEICvi3xo9LN/fpMcQpgZQXha/597T8GAQhAAAIQgEAsAU8E9BL4D/RTTYrDCCcoAJJ/P3uBbSEAAQhAAALFCXgJ4q8WL969ZL9HALzO/7VSv366R8e7EIAABCAAAQiMReAt+uDSsT6c6P1+Erfv8Oc7/fmOfxgEIAABCEAAAtUSGFJ1zsFP9VJtP5MAj1GFB/VSKdtAAAIQgAAEINA3gany4B/jP+zFU69HAF6pyn4iTemlUraBAAQgAAEIQCAJAd8qeCvp7rLeep0EeKIqIvmXpU15CEAAAhCAQFoCk+XOawOU/kHfyymAv1ZFH08bP94gAAEIQAACEOiRwNra7kHptjLblx0xrCTnvuZ/9TKVUBYCEIAABCAAgVACj8u71wZ4qGgtZU8B/Isck/yL0qUcBCAAAQhAoBoCnhD45TJVlTkC8Go5vkEqO2goEw9lIQABCEAAAhDoncDrtekPimxedADgSQa3SpsXcVpBGd8R6XrpTsnnPUbL6yS/KGEQgAAEIACBfgk4V64irdFFzoteFK+XOXXaLLn9Sh43lZ5J5fkjcuSEOkg9qfovlA6VvCMwCEAAAhCAQB0IOCcdJl0keVGeQeZK1328lMReLi+zpUE1yMsc7i1x2aEgYBCAAAQgUGsCyyq6faUrpEHlzWdVtycE9m2ny8MgGuFTDq/rO3ocQAACEIAABAZDYHdVe7s0iBz63X6bvJ4cPFdx8L9RfQdLRecnqCgGAQhAAAIQqCUB57K3S0NSlQOB51Wfc3jPdq62rCpgL2f4SWnpnqNlQwhAAAIQgEA9CTi3Occ511WVV8/pFcV2FQb5mOp6Q6+Bsh0EIAABCEAgEwLOdc55VQwC5qoe3yegtF2lLaoI0CsLblA6OjaAAAQgAAEI5EnAOc+5r4oc68mIpexNKl1FYJerHq9ehEEAAhCAAATaRMC5zzmwily7a1GwXunvrgqCOlN11GXhhKJsKAcBCEAAAhBIRcA50LkwehBwc9GAff1idDBexW+pogFRDgIQgAAEINBQAs6FzonRedfr6Uxol6hEZCD3yf/LJoyCAhCAAAQgAIF2EHBOdG6MzL3O7ePa6vrU1w5GBeHlfLcYNwI+hAAEIAABCLSPgHOjc2RU/nVuH/fH98cCK/flCAdIGAQgAAEIQAACixJwjnSujBoEfHjRKhe887PAik9dUA3PIAABCEAAAhDoQsC5MmoA4DvodrVX692oSn1Yw7dRxCAAAQhAAAIQGJuAc2XkqYD5p+F9yV/H3tV5EvD4Jfl8MMAvLiEAAQhAAAJNIuBc6ZwZZYd1c/wHvRlxBMB+l+9WIe9BAAIQgAAEILAIAefMqJz8u9G1vVJvRCR/+3z/6Mp4DQEIQAACEIDAuAScO6Py8stH1nxIUEX3yu/kkRXxHAIQgAAEIACBCQk4dzqHRgwC/tq1d+YA7OAXAXa+fPrWhxgEIAABCEAAAsUJOHdeULx4qZLbu3Tn13nUAODiUiHVo/CKCmNNadoorabXM6UHuuiPes+jNAwCTSKwghrjW4luI20pMZdHELDaE5itCO+QbpVul2ZJuZpz6EcCgp+f85eV8+el1IcZHpLPzhGGgPiTutxM3j4lubP0wsGDgpOlPSXucSAIWNYENlX0P5LmSL38P7AN3OrSB9yH3Zfdp3M03yzoESk1z2flc2kD2SXAuYM9zc5rbDspti9Lqc+xPCGf35EOkpaTMAjkQsBHBD8p+csh9RcO/mA6yD7gPu2+3TnqrafZWNTdAncwgb+TInbMW2qKd0fFdX1Qm0dz9GUcnsmZY6dT2FiLCPjwvm8ZOroP8xomTeoD7uPu6znZ/go2Yh98yBD+OcC5R1vL2HmNbGPFcqEUAXIin/eo3v1qxIJQIDCawEl6Y6J+zOcwakIfcF/PyTxgiTgdd7wh+Nx16p06ZMc1Md/96FTJMypTt7OsvxsUw7zZl3rEIFAXArsqkLlS2f5MeZjl2Afc193nczKvDpia9UmepLdKAIW6LPvrmcu3Se+RPJli0OZzLtdJRww6EOqHwDABz1P5lrQYRCDQEgLu6+7zOc3R8kTz1LZKkwcAPuTuc/1rpabWpz/PBzhR8mEo5gb0CZPN+yawizys07cXHEAgLwLu8+77uVjEAOClHgCsHEDAk98GaZ7teb7kSxzrah9QYFdIEfzr2mbiqh8BX+OPQaCNBHLq+xEDgMYdAfAv6rOkz0o5HNL0eagZ0voSBoFBEMjpS3AQfKizuQRy6vsMAAr0w6+qzCEFytWpyHoK5jKJIwF12ivtiSWnL8H27BVaWgWBnPp+2ABgSgDp2QE+J3Lpaxp9WD1H8yDgPGlyjsETMwQgAAEIhBKIWM54iucANMH2UCP+LfOG+HTAVzJvA+HnR+DW/EImYggkIdD6vt+EAcCG6grnSnW4zK/fXunLA3M9itFv29l+MARa/yU4GOzUWgMCre/7uQ8AfDODS6SpNehMqULwPIbtUjnDDwQmIND6L8EJ+PBxcwm0vu/nPgD4oPrmBg3rn54H4JsUYRCogsA1qmSoioqoAwI1IjCkWNz3W205DwBW0p7z9f5NtNeoUfs2sWG0qXYEnlRE75JerF1kBASBGALu6+7z7vuttpwHAB/XnmvypXOfU/u4KqDV/56VNf4q1fS1ymqjIggMloD7uvt86y3XAcCa2nNHNXzvbaT2vbvhbaR59SHgAfWP6hMOkUAghID7uPs6JgK5DgCOU+wR6xfUrVO4nTndsKJu/IinOIGnVHRn6aPSM8U3oyQEsiDgW9QfLbmPu69jIpDjAMAJMbfV/nrtbKtrw7173ZjtIFCSwFyV/5K0hXSl9LyEQSBnAr4NvCf7bSV9UXIfx4YJ5HiO+Q2Kvepf/79XnXdJa0sbS1WuOeABwNkSBoGqCNyjinaTlpY8GNhG8q21l5cwCNSdwGwFeIfky/zulDiiJQjdLMcBQBWz4+cI1knSD6RbpJF3N/QdBv1luJ3kw6XTpEh7o5wvKfFrLJIyvrsR8GHTGcPq9jnvQQACmRPwJRGpdWAQEw9YHg2Id2T7fyL//sVTxKaq0JnSyO0jnu9RJBjKQAACEIBAIwk4pybPLbnNAfAEjshL/06Q/62loitEPa6yh0o+TP+IFGXMA4gii18IQAACLSWQ2wBgn8D9dJZ8HyP5sGdZ+542OKzsRiXKMwAoAYuiEIAABCAwMYHcBgCbT9yknkr4XstH9rTlgo0u1dPTF7xM+uzl8ubTDRgEIAABCEAgCYHcBgBRE+7eK5qPJSD6Yfm4P4Gfbi6i2t6tLt6DAAQgAIGGE2AAMGnSTdrHlyXazzPlx9dRRxgDgAiq+IQABCDQUgI5DQBW1D6KWBXPl/mltNT+OrExAOiQ4BECEIAABPomkNMAICoBFp3xXxS2F6DwOgKpLar9qePEHwQgAAEIZECAAUDxS/6K7s6nVfBnRQuXKMcAoAQsikIAAhCAwPgEchoA+BRAhP0uwGmEz6j2BzQflxCAAAQgUHcCOQ0AHgqCGXFpYYTPPwa1H7cQgAAEINBCAjkNAHxDnggruuxv0brXUMGIw/UPFg2AchCAAAQgAIGJCOQ0APANebwWcmpLPQBI7a/TXgYAHRI8QgACEIBA3wRyGgA8p9ZGrLe/k/z6tqepLOrGPQwAUu0h/EAAAhCAwKScBgDeXV6yN7WtLYefSeTUv/6PSORrtJuRtyQe/RmvIQABCEAAAqUI5DYAiJhdb2AflV5dityihX0U4QxpiUU/SvJOxOAnSWA4gQAEIACB/AjkNgC4Ogixk/YZ0pQ+/P+Ttt2kj+3H2/Q2fThrvAJ8BgEIQAACEChDILcBwEVlGley7EYqf7tU9kjAytrGtxI+WoqyyHZHxYxfCEAAAhCoOQHPrE+tAwPb/NOAeEe2/wX5/7xUZGLg3irnyXkjt494vqnqwCAAAQhAoJ0EnFOT55bJGbL0r+FXBcbt0wHHSAdL10m+uY/vF3CX5AmDnuhnbTcsPYTavfJ+d2gNOIcABCAAgdYRyHUAcGwFe8rJ3oMAa5DG4f9B0m9v3a9U03eWtpa2kraQlpUwCNSdwFMK8MeST+l6/tS1kn9IYV0IJD+soDoiTwEsJv/3SxFx19Hna7vsM96CQBQB/yj4B+k5qY7/D8TEfinbB9yX3adz/MGrsOdZyCmA3CYBmoR3/hfmIWn+H5+CuL75zaSFNSGwseK4QTpeWrImMREGBPol4L7sPu2+7T6ODRPIcQDg0E+RfjXchiY/fKzJjaNttSLgL0YfLt22VlERDATSEXDfdh9nEDDMNNcBwPOK/9jhNjT14Vw1bEZTG0e7akVgCUVzpjSlVlERDATSE3Afd193n2+95ToA8I47T7q5oXuwDQOchu66LJvlq1745Z/lriPoHgi4r7vPt95yHgB450UuvjPIznGSKv/1IAOg7tYQWEct/XRrWktDIfBnAu7z7vutttwHANdo732zYXvQif+4hrWJ5tSXgK8yWaq+4REZBEIIuM+777fach8AeOcdITVlpvwTaste0uMSBoEqCHhRKwwCbSTQ+r7fhAGAr/HcTxrKvAfPVfwHSz/PvB2EnxeB1n8J5rW7iDYhgdb3/agBgBfrqdIeVmVel392lZUmrusT8ndpYp+4g8BEBDabqACfQ6ChBHLq+yE51QOAiNvMrjKADuP18g+R/Es6NztLAZ+QW9DE2wgC9zeiFTQCAuUJ5NT3I3LqLA8AIs43r1F+XyTZ4hJ5eauU05GAExXvO5O0HicQKE/AN7rCINBGAjn1/Yic+njTBgDuxB4E7CgNSXU2X+v/fulD0gt1DpTYGk0gpy/BRu8IGlc5gZz6PgOAEt3DpwN8u97rSmxTZdFHVNnu0ilVVkpdEOhCoKmLaXVpKm9BYCECOfV9BgAL7bqJX3hioJPsqRMXrbTEnarNK1FdW2mtVAaB7gT8JXhx9494FwKNJeA+zwBAEJo0B2B0b/UlgodLO0k3jf6w4tcPqb4PSL70ZEjCIFAXAu9TII/WJRjigEAwAfd19/mcLOwIQMRMyFVFdlqN6HqhoB2kA6RfVhzXU6rveGk96WSJ8/2CgNWKgAenR9QqIoKBQBwB93X3+VzMudQ5NbXNy/1vk9cXA+QJbnU03xv6g5IbH9Hujk8n/m9IESM3ucUgkJzAkfLoftvpwzzCokl9wH37qOT/NfEOnUsj9oNz/6QNgpxfbuc1Ni+s4MPx/nV+l5QCsEeVvjfBPtKyEgaB3Aisr4B9xCzF/wM+4FiXPnCj+vSGuf0zDsfrXBrBcQMnQV8K+IS0nJTSfP7dhy3sOwd7hYL0aoK7SGtKPuyyujRZGm3eGT6P9MCwfqxHX344Q8pxISKFjUFgPgF/J7xb2kPyhNV1JQwCuREYUsC+1O9/JU8GnyPlZisqYE9o982LUtqTcraiBwA2j462n/cs7Z+D5O6ctC4r9eYvQg9iPBhYTZopOek/KHmAg0GgDQS8CtmW0vJtaCxtzJ6AF4LzjzJfbp27HagGnB3QCE+K97y4eXay/kYcYsg5+Q+j4QECEIAABCAwEALOoRG52Tl/vr1TzyIq8aQL/3rGIAABCEAAAhAoTsC5M2pSrnP+fHuZnvn8SMQg4LT5tfAEAhCAAAQgAIEiBJw7I3Kyc71z/kIWNfPX171vslBNvIAABCAAAQhAYCwCzpnOnREDAOf6eeZJbh2LWg50CVXwhU4lPEIAAhCAAAQgMC4B50znzgjrmut9/W/EaKPjc5eIluATAhCAAAQg0CACzpWdvBnx6Fzf1X6mdyMqtM/bpNTXMnZtBG9CAAIQgAAEMiTgHOlcGZWHnePn28hTAH4z4nrDTmVb6cmJnRc8QgACEIAABCCwEAHnSOfKKBs3x79UtT4lRY0+7NfrjWMQgAAEIAABCCwg4NwYmXud253jx7WoRYE6DfPMxt3HjYAPIQABCEAAAu0h4JwYNeu/k3sXWvxnLLQb6gOvZ9/ZKOLxT/K/3lgB8D4EIAABCECgJQScC50TI3Jtx6dzunN7IfNlAp0Nox5/qToYBBTaHRSCAAQgAIEGEnAOdC6MyrMdv10v/RuL584VBOTAPOrZfawgeB8CEIAABCDQUALOfdG//DsDAOf0UnapSnc2jnz0eY8jS0VGYQhAAAIQgEC+BJzzos/5d/K2c3lp86GJZ6SOk+hH36+ZdQJK7yY2gAAEIACBTAg4xznXRefTjn/ncOfynuyz2qrjqIpHL4AwvadI2QgCEIAABCBQXwLTFVrkIj/dcrRzeM+2rLa8T+rmOPI9H7LYtOeo2RACEIAABCBQDwLOZVWdUh+Zl527ncP7sv219UinVT33LQtPl9bqK3o2hgAEIAABCFRPwLnLOcy5rKq8ObKeA1I1+bwBNcCNeVq6QHqHtLKEQQACEIAABOpIwDnKuco5y7lrZEKu8rlzdjJbQZ7ukapsQLe6PGvyKukoaV0JgwAEIAABCAySwLqq3DnJuamqmf3d8mPnPedq5+wJbbEJSywo4PMYN0l9n1NY4LLvZzPl4YEueljvGQYGAQhAAAIQ6JeAc+Wq0rQuWqlf5wm393r/20t3F/FZZgBgfz60cWYRx5SBAAQgAAEIQKBSAoeqtm8XrXGJogWHy92pxzWlrUtuR3EIQAACEIAABOIIeH2BUpf9lT0C4NC9kIHXFd7TLzAIQAACEIAABAZK4HLVvo/0XJkoehkA2P8U6TJpuoRBAAIQgAAEIDAYAler2jdJvuqglPU6AHAly0v/I+3gFxgEIAABCEAAApUSuFG1vV6a3Uut/QwAXN9U6UppS7/AIAABCEAAAhCohMAdqmVX6fFea1u81w2Ht3PFHn3c3KcfNocABCAAAQhAoBgB51zn3p6Tv6vpdwBgH49Iu0jn+AUGAQhAAAIQgEAYAeda51zn3r6s7GWAY1Xm1Y++K82Vpkv9nlqQCwwCEIAABCAAgWECXtzu09KRknNu3xaRqH0DgjOlOq0Y2DcoHEAAAhCAAAQGRMAr/B0qnZ+y/hSnAEbH4yMBF41+k9cQgAAEIAABCPREwDnVNxhKaqlOAXSCWk5PfH7ibZ03eIQABCAAAQhAoC8CvhfPFtL3pVKL/YxXa8pTAGupokskLgkcjzifQQACEIAABHojcJc220v6bW+bL7xVqlMA28qtL0sg+S/Ml1cQgAAEIACBVAQ2k6NbpB1TOExxBGB3BeJf/l4eGIMABCAAAQhAIJbAs3K/n+Ql+Xu2fgcAO6lm34SAGf897wI2hAAEIAABCJQm8Iy2eLPk1Xh7sn4GAD7s/0NpxZ5qZiMIQAACEIAABPoh8KQ29oqAN/TipNcBgM9DXCWt3EulbAMBCEAAAhCAQBICM+VlN+m2st56GQCsr0qul15WtjLKQwACEIAABCCQnMCj8uhT8j8v47nsAMDn+mdIf1mmEspCAAIQgAAEIBBKwMl/O6nwrYHLXgZ4spyT/EP3Ic4hAAEIQAACpQlsrC2+UWarMkcADpfjU8o4Dyw7R759GuJO6cEu8uEQ3zgBgwAEIAABCPRLwLlyFWmNLtpc771WSr2yrlz2ZEdoq6/3tOUYG22t933JgZPqoOTZjhdKh0reERgEIAABCECgDgSckw6TvGb/U9Kg8qTrda52zk5iXt//XmlQDbpUde8tsdCQIGAQgAAEIFBrAp4rt690hTSovOmc7dzdt31eHgbRiFtV7+v6jh4HEIAABCAAgcEQ8Eq5t0uDyKHO3X3ZBtraSw5WGfxvVN/BUpn5CSqOQQACEIAABGpHwLns7dKQVGUude52Du/ZqjyE8YKi/KS0dM/RsiEEIAABCECgngSc25zjnOuqGgg4h/dkb9VWVQX5mOp6Q09RshEEIAABCEAgHwLOdc55VeVX5/JStoxKD0lVBPgL1dPXYQptj0EAAhCAAARyIeCc59xXRY4dUj3O6YXtcJWsIrDLVc/UwlFREAIQgAAEINAMAs59zoFV5Frn9ELmCQteUjA6qDNVR10WTigEhkIQgAAEIACBhAScA50Lo/OtjzY4t09ob1GJ6GC8it9SE0ZCAQhAAAIQgECzCTgXOidG513n9gntKpWIDOQ++edOghPuBgpAAAIQgEBLCDgnOjdG5l7n9nHNywdGBuDlfLcYNwI+hAAEIAABCLSPgHOjc2RkDh53ieDTAyufK98HSBgEIAABCEAAAosScI50rowaBDjHdzVPRujcRS+i8lO71sqbEIAABCAAAQh0CDhXRuRg+3SO7zr5fnpgpT6ssYaEQQACEIAABCAwNgHnyshTAdM7VS/eeaLHfUc8T/30S3L4YGqn+IMABCAAAQg0jIBzpXNmlHXN9b9RbRGHHf4gv8tHtQS/EIAABCAAgYYRcM507ozIyc71C9nmehVRkX2+f6GaeAEBCEAAAhCAwEQEnDuj8rJz/nw7Rs8iKrpXfifPr4UnEIAABCAAAQgUIeDc6RwakZud8yd15gBs6RcBdr58+taHGAQgAAEIQAACxQk4d15QvHipkvNyfufXedTiPBeXCqkehVdUGGtK00ZpNb2eKT3QRX/Uex6lYRBoEoEV1JitpG0kf2Ewl0cQsNoTmK0I75BulW6XZkm5mnPoRwKCn5/zl5XzOVLqwwwPyWfnCENA/EldbiZvn5LcWXrh4EHBydKeEvc4EAQsawKbKvofSRHfC738f7FNb99LcPtzH3Zfdp/O0XzN/iNS6n3p/23n/kmvDnDuYE+z8xrbTorty1LqcyxPyOd3pIOk5SQMArkQ8BHBT0rPSqm/cPAH00H2Afdp9+3OUW89zcai7hbo3D/pcClix7ylpnh3VFzXB7V5NEdfxuGZnDl2OoWNtYiAD+/fLI3uw7yGSZP6gPu4+3pOtr+CjdgHzv2T/j3AuUdby9h5jWxjxXKhFAFyIp/3qN79asSCUCAwmsBJemOifsznMGpCH3Bfz8k8YIk4HefcP+lsKfVOHbLjmphvs+i1lT2jMnU7y/q7QTFsL2EQqBOBXRXMXKlsf6Y8zHLsA+7r7vM5mVcHTM36bE/SmxpAoS7L/nrm8m3Se6SuN0AIaPt4LnfQh9dJR4xXiM8gUCEBz1P5lrRYhXVSFQQGScB93X0+pzlaDwQAm9rkAYAPuftc/1oB4Ppx6fkAJ0o+DMXcgH5Ism0KArvIyTopHOEDAhkRcJ9338/FshoAePLbIM2zPc+X5l3mMMhAxqn7A/rsCmnlccrwEQSiCfgafwwCbSSQU9/PagAwqFMA/kV9lvRZKYdDmj4PNUNaX8IgMAgCOX0JDoIPdTaXQE59nwFAgX74VZU5pEC5OhVZT8FcJnEkoE57pT2x5PQl2J69QkurIJBT3w8bAERcrje7ir03qo4P6bUPq+doHgScJ03OMXhihgAEIACBUAKzArwv40mATbA91Ih/y7whPh3wlczbQPj5Ebg1v5CJGAJJCLS+7zdhALChusK5Uh0u8+u3V/rywFyPYvTbdrYfDIHWfwkOBju11oBA6/t+7gOApdWJLpEi1jIYVP/0PIbtBlU59baOQOu/BFu3x2lwh0Dr+37uA4APak9u0NmbDXn0PADfpAiDQBUErlElQ1VURB0QqBGBIcXivt9qy3kAsJL2nK/3b6K9Ro3at4kNo021I/CkInqX9GLtIiMgCMQQcF93n3ffb7XlPAD4uPZcky+d+5zax1UBrf73rKzxV6mmr1VWGxVBYLAE3Nfd51tvuQ4A1tSeO6rhe28jte/dDW8jzasPAQ+of1SfcIgEAiEE3Mfd1zERyHUAcJxin9KCPeh25nTDihbsksY28Sm1bGfpo9IzjW0lDWsrAd+i/mjJfdx9HROBHAcAToi5rfbXa2dbXRvu3evGbAeBkgTmqvyXpC2kK6XnJQwCORPwbeA92W8r6YuS+zg2TCDHc8xvUOxV//r/veq8S1pb2liqcs0BDwDOljAIVEXgHlW0m7S05MHANpJvrb28hEGg7gRmK8A7JF/md6fEES1B6GY5DgCqmB0/R7BOkn4g3SKNvLuh7zDoL8PtJB8unSZF2hvlfEmJX2ORlPHdjYAPm84YVrfPeQ8CEMicgC+JSK0Dg5h4wPJoQLwj2/8T+fcvniI2VYXOlEZuH/F8jyLBUAYCEIAABBpJwDk1eW7JbQ6AJ3BEXvp3gvxvLRVdIepxlT1U8mH6R6QoYx5AFFn8QgACEGgpgdwGAPsE7qez5PsYyYc9y9r3tMFhZTcqUZ4BQAlYFIUABCAAgYkJ5DYA2HziJvVUwvdaPrKnLRdsdKmenr7gZdJnL5c3n27AIAABCEAAAkkI5DYAiJpw917RfCwB0Q/Lx/0J/HRzEdX2bnXxHgQgAAEINJwAA4BJk27SPr4s0X6eKT++jjrCGABEUMUnBCAAgZYSyGkAsKL2UcSqeL7ML6Wl9teJjQFAhwSPEIAABCDQN4GcBgBRCbDojP+isL0AhdcRSG1R7U8dJ/4gAAEIQCADAgwAil/yV3R3Pq2CPytauEQ5BgAlYFEUAhCAAATGJ5DTAMCnACLsdwFOI3xGtT+g+biEAAQgAIG6E8hpAPBQEMyISwsjfP4xqP24hQAEIACBFhLIaQDgG/JEWNFlf4vWvYYKRhyuf7BoAJSDAAQgAAEITEQgpwGAb8jjtZBTW+oBQGp/nfYyAOiQ4BECEIAABPomkNMA4Dm1NmK9/Z3k17c9TWVRN+5hAJBqD+EHAhCAAAQm5TQA8O7ykr2pbW05/Ewip/71f0QiX6PdjLwl8ejPeA0BCEAAAhAoRSC3AUDE7HoD+6j06lLkFi3sowhnSEss+lGSdyIGP0kCwwkEIAABCORHILcBwNVBiJ20z5Cm9OH/n7TtJn1sP96mt+nDWeMV4DMIQAACEIBAGQK5DQAuKtO4kmU3UvnbpbJHAlbWNr6V8NFSlEW2Oypm/EIAAhCAQM0JeGZ9ah0Y2OafBsQ7sv0vyP/npSITA/dWOU/OG7l9xPNNVQcGAQhAAALtJOCcmjy3TM6QpX8Nvyowbp8OOEY6WLpO8s19fL+AuyRPGPREP2u7Yekh1O6V97tDa8A5BCAAAQi0jkCuA4BjK9hTTvYeBFiDNA7/D5J+e+t+pZq+s7S1tJW0hbSshEGg7gSeUoA/lnxK1/OnrpX8QwrrQiD5YQXVEXkKYDH5v1+KiLuOPl/bZZ/xFgSiCPhHwT9Iz0l1/H8gJvZL2T7gvuw+neMPXoU9z0JOAeQ2CdAkvPO/MA9J8//4FMT1zW8mLawJgY0Vxw3S8dKSNYmJMCDQLwH3Zfdp9233cWyYQI4DAId+ivSr4TY0+eFjTW4cbasVAX8x+nDptrWKimAgkI6A+7b7OIOAYaa5DgCeV/zHDrehqQ/nqmEzmto42lUrAksomjOlKbWKimAgkJ6A+7j7uvt86y3XAYB33HnSzQ3dg20Y4DR012XZLF/1wi//LHcdQfdAwH3dfb71lvMAwDsvcvGdQXaOk1T5rwcZAHW3hsA6aumnW9NaGgqBPxNwn3ffb7XlPgC4Rnvvmw3bg078xzWsTTSnvgR8lclS9Q2PyCAQQsB93n2/1Zb7AMA77wipKTPln1Bb9pIelzAIVEHAi1phEGgjgdb3/SYMAHyN537SUOY9eK7iP1j6eebtIPy8CLT+SzCv3UW0CQm0vu9HDQC8WE+V9rAq87r8s6usNHFdn5C/SxP7xB0EJiKw2UQF+BwCDSWQU98PyakeAETcZnaVAXQYr5d/iORf0rnZWQr4hNyCJt5GELi/Ea2gERAoTyCnvh+RU2d5ABBxvnmN8vsiyRaXyMtbpZyOBJyoeN+ZpPU4gUB5Ar7RFQaBNhLIqe9H5NTHmzYAcCf2IGBHaUiqs/la//dLH5JeqHOgxNZoAjl9CTZ6R9C4ygnk1PcZAJToHj4d4Nv1XldimyqLPqLKdpdOqbJS6oJAFwJNXUyrS1N5CwILEcip7zMAWGjXTfzCEwOdZE+duGilJe5UbV6J6tpKa6UyCHQn4C/Bi7t/xLsQaCwB93kGAILQpDkAo3urLxE8XNpJumn0hxW/fkj1fUDypSdDEgaBuhB4nwJ5tC7BEAcEggm4r7vP52RhRwAiZkKuKrLTakTXCwXtIB0g/bLiuJ5SfcdL60knS5zvFwSsVgQ8OD2iVhERDATiCLivu8/nYs6lzqmpbV7uf5u8vhggT3Cro/ne0B+U3PiIdnd8OvF/Q4oYucktBoHkBI6UR/fbTh/mERZN6gPu20cl/6+Jd+hcGrEfnPsnbRDk/HI7r7F5YQUfjvev87ukFIA9qvS9CfaRlpUwCORGYH0F7CNmKf4f8AHHuvSBG9WnN8ztn3E4XufSCI4bOAn6UsAnpOWklObz7z5sYd852CsUpFcT3EVaU/Jhl9WlydJo887weaQHhvVjPfrywxlSjgsRKWwMAvMJ+Dvh3dIekiesrithEMiNwJAC9qV+/yt5MvgcKTdbUQF7QrtvXpTSnpSzFT0AsHl0tP28Z2n/HCR356R1Wak3fxF6EOPBwGrSTMlJ/0HJAxwMAm0g4FXItpSWb0NjaWP2BLwQnH+U+XLr3O1ANeDsgEZ4Urznxc2zk/U34hBDzsl/GA0PEIAABCAAgYEQcA6NyM3O+fPtnXoWUYknXfjXMwYBCEAAAhCAQHECzp1Rk3Kd8+fby/TM50ciBgGnza+FJxCAAAQgAAEIFCHg3BmRk53rnfMXsqiZv77ufZOFauIFBCAAAQhAAAJjEXDOdO6MGAA4188zT3LrWNRyoEuogi90KuERAhCAAAQgAIFxCThnOndGWNdc7+t/I0YbHZ+7RLQEnxCAAAQgAIEGEXCu7OTNiEfn+q72M70bUaF93ialvpaxayN4EwIQgAAEIJAhAedI58qoPOwcP99GngLwmxHXG3Yq20pPTuy84BECEIAABCAAgYUIOEc6V0bZuDn+par1KSlq9GG/Xm8cgwAEIAABCEBgAQHnxsjc69zuHD+uRS0K1GmYZzbuPm4EfAgBCEAAAhBoDwHnxKhZ/53cu9DiP2Oh3VAfeD37zkYRj3+S//XGCoD3IQABCEAAAi0h4FzonBiRazs+ndOd2wuZLxPobBj1+EvVwSCg0O6gEAQgAAEINJCAc6BzYVSe7fjteunfWDx3riAgB+ZRz+5jBcH7EIAABCAAgYYScO6L/uXfGQA4p5eyS1W6s3Hko897HFkqMgpDAAIQgAAE8iXgnBd9zr+Tt53LS5sPTTwjdZxEP/p+zawTUHo3sQEEIAABCGRCwDnOuS46n3b8O4c7l/dkn9VWHUdVPHoBhOk9RcpGEIAABCAAgfoSmK7QIhf56ZajncN7tmW15X1SN8eR7/mQxaY9R82GEIAABCAAgXoQcC6r6pT6yLzs3O0c3pftr61HOq3quW9ZeLq0Vl/RszEEIAABCECgegLOXc5hzmVV5c2R9RyQqsnnDagBbszT0gXSO6SVJQwCEIAABCBQRwLOUc5VzlnOXSMTcpXPnbOT2QrydI9UZQO61eVZk1dJR0nrShgEIAABCEBgkATWVeXOSc5NVc3s75YfO+85VztnT2iLTVhiQQGfx7hJ6vucwgKXfT+bKQ8PdNHDes8wMAhAAAIQgEC/BJwrV5WmddFK/TpPuL3X+99euruIzzIDAPvzoY0zizimDAQgAAEIQAAClRI4VLV9u2iNSxQtOFzuTj2uKW1dcjuKQwACEIAABCAQR8DrC5S67K/sEQCH7oUMvK7wnn6BQQACEIAABCAwUAKXq/Z9pOfKRNHLAMD+p0iXSdMlDAIQgAAEIACBwRC4WtW+SfJVB6Ws1wGAK1le+h9pB7/AIAABCEAAAhColMCNqu310uxeau1nAOD6pkpXSlv6BQYBCEAAAhCAQCUE7lAtu0qP91rb4r1uOLydK/bo4+Y+/bA5BCAAAQhAAALFCDjnOvf2nPxdTb8DAPt4RNpFOscvMAhAAAIQgAAEwgg41zrnOvf2ZWUvAxyrMq9+9F1prjRd6vfUglxgEIAABCAAAQgME/Didp+WjpScc/u2iETtGxCcKdVpxcC+QeEAAhCAAAQgMCACXuHvUOn8lPWnOAUwOh4fCbho9Ju8hgAEIAABCECgJwLOqb7BUFJLdQqgE9RyeuLzE2/rvMEjBCAAAQhAAAJ9EfC9eLaQvi+VWuxnvFpTngJYSxVdInFJ4HjE+QwCEIAABCDQG4G7tNle0m9723zhrVKdAthWbn1ZAsl/Yb68ggAEIAABCKQisJkc3SLtmMJhiiMAuysQ//L38sAYBCAAAQhAAAKxBJ6V+/0kL8nfs/U7ANhJNfsmBMz473kXsCEEIAABCECgNIFntMWbJa/G25P1MwDwYf8fSiv2VDMbQQACEIAABCDQD4EntbFXBLyhFye9DgB8HuIqaeVeKmUbCEAAAhCAAASSEJgpL7tJt5X11ssAYH1Vcr30srKVUR4CEIAABCAAgeQEHpVHn5L/eRnPZQcAPtc/Q/rLMpVQFgIQgAAEIACBUAJO/ttJhW8NXPYywJPlnOQfug9xDgEIQAACEChNYGNt8Y0yW5U5AnC4HJ9Sxnlg2Tny7dMQd0oPdpEPh/jGCRgEIAABCECgXwLOlatIa3TR5nrvtVLqlXXlsic7Qlt9vactx9hoa73vSw6cVAclz3a8UDpU8o7AIAABCEAAAnUg4Jx0mOQ1+5+SBpUnXa9ztXN2EvP6/vdKg2rQpap7b4mFhgQBgwAEIACBWhPwXLl9pSukQeVN52zn7r7t8/IwiEbcqnpf13f0OIAABCAAAQgMhoBXyr1dGkQOde7uyzbQ1l5ysMrgf6P6DpbKzE9QcQwCEIAABCBQOwLOZW+XhqQqc6lzt3N4z1blIYwXFOUnpaV7jpYNIQABCEAAAvUk4NzmHOdcV9VAwDm8J3urtqoqyMdU1xt6ipKNIAABCEAAAvkQcK5zzqsqvzqXl7JlVHpIqiLAX6ievg5TaHsMAhCAAAQgkAsB5zznvipy7JDqcU4vbIerZBWBXa56phaOioIQgAAEIACBZhBw7nMOrCLXOqcXMk9Y8JKC0UGdqTrqsnBCITAUggAEIAABCCQk4BzoXBidb320wbl9QnuLSkQH41X8lpowEgpAAAIQgAAEmk3AudA5MTrvOrdPaFepRGQg98k/dxKccDdQAAIQgAAEWkLAOdG5MTL3OrePa14+MDIAL+e7xbgR8CEEIAABCECgfQScG50jI3PwuEsEnx5Y+Vz5PkDCIAABCEAAAhBYlIBzpHNl1CDAOb6reTJC5y56EZWf2rVW3oQABCAAAQhAoEPAuTIiB9unc3zXyffTAyv1YY01JAwCEIAABCAAgbEJOFdGngqY3ql68c4TPe474nnqp1+SwwdTO8UfBCAAAQhAoGEEnCudM6Osa67/jWqLOOzwB/ldPqol+IUABCAAAQg0jIBzpnNnRE52rl/INteriIrs8/0L1cQLCEAAAhCAAAQmIuDcGZWXnfPn2zF6FlHRvfI7eX4tPIEABCAAAQhAoAgB507n0Ijc7Jw/qTMHYEu/CLDz5dO3PsQgAAEIQAACEChOwLnzguLFS5Wcl/M7v86jFue5uFRI9Si8osJYU5o2Sqvp9UzpgS76o97zKA2DQJMIrKDGbCVtI/kLg7k8goDVnsBsRXiHdKt0uzRLytWcQz8SEPz8nL+snM+RUh9meEg+O0cYAuJP6nIzefuU5M7SCwcPCk6W9pS4x4EgYFkT2FTR/0iK+F7o5f+LbXr7XoLbn/uw+7L7dI7ma/YfkVLvS/9vO/dPenWAcwd7mp3X2HZSbF+WUp9jeUI+vyMdJC0nYRDIhYCPCH5SelZK/YWDP5gOsg+4T7tvd45662k2FnW3QOf+SYdLETvmLTXFu6Piuj6ozaM5+jIOz+TMsdMpbKxFBHx4/2ZpdB/mNUya1Afcx93Xc7L9FWzEPnDun/TvAc492lrGzmtkGyuWC6UIkBP5vEf17lcjFoQCgdEETtIbE/VjPodRE/qA+3pO5gFLxOk45/5JZ0upd+qQHdfEfJtFr63sGZWp21nW3w2KYXsJg0CdCOyqYOZKZfsz5WGWYx9wX3efz8m8OmBq1md7kt7UAAp1WfbXM5dvk94jdb0BQkDbx3O5gz68TjpivEJ8BoEKCXieyrekxSqsk6ogMEgC7uvu8znNF9I1AwAAEC9JREFU0XogANjUJg8AfMjd5/rXCgDXj0vPBzhR8mEo5gb0Q5JtUxDYRU7WSeEIHxDIiID7vPt+LpbVAMCT3wZpnu15vjTvModBBjJO3R/QZ1dIK49Tho8gEE3A1/hjEGgjgZz6flYDgEGdAvAv6rOkz0o5HNL0eagZ0voSBoFBEMjpS3AQfKizuQRy6vsMAAr0w6+qzCEFytWpyHoK5jKJIwF12ivtiSWnL8H27BVaWgWBnPp+2AAg4nK92VXsvVF1fEivfVg9R/Mg4Dxpco7BEzMEIAABCIQSmBXgfRlPAmyC7aFG/FvmDfHpgK9k3gbCz4/ArfmFTMQQSEKg9X2/CQOADdUVzpXqcJlfv73SlwfmehSj37az/WAItP5LcDDYqbUGBFrf93MfACytTnSJFLGWwaD6p+cxbDeoyqm3dQRa/yXYuj1OgzsEWt/3cx8AfFB7coPO3mzIo+cB+CZFGASqIHCNKhmqoiLqgECNCAwpFvf9VlvOA4CVtOd8vX8T7TVq1L5NbBhtqh2BJxXRu6QXaxcZAUEghoD7uvu8+36rLecBwMe155p86dzn1D6uCmj1v2dljb9KNX2tstqoCAKDJeC+7j7fest1ALCm9txRDd97G6l97254G2lefQh4QP2j+oRDJBAIIeA+7r6OiUCuA4DjFPuUFuxBtzOnG1a0YJc0tolPqWU7Sx+VnmlsK2lYWwn4FvVHS+7j7uuYCOQ4AHBCzG21v1472+racO9eN2Y7CJQkMFflvyRtIV0pPS9hEMiZgG8D78l+W0lflNzHsWECOZ5jfoNir/rX/+9V513S2tLGUpVrDngAcLaEQaAqAveoot2kpSUPBraRfGvt5SUMAnUnMFsB3iH5Mr87JY5oCUI3y3EAUMXs+DmCdZL0A+kWaeTdDX2HQX8Zbif5cOk0KdLeKOdLSvwai6SM724EfNh0xrC6fc57EIBA5gR8SURqHRjExAOWRwPiHdn+n8i/f/EUsakqdKY0cvuI53sUCYYyEIAABCDQSALOqclzS25zADyBI/LSvxPkf2up6ApRj6vsoZIP0z8iRRnzAKLI4hcCEIBASwnkNgDYJ3A/nSXfx0g+7FnWvqcNDiu7UYnyDABKwKIoBCAAAQhMTCC3AcDmEzeppxK+1/KRPW25YKNL9fT0BS+TPnu5vPl0AwYBCEAAAhBIQiC3AUDUhLv3iuZjCYh+WD7uT+Cnm4uotneri/cgAAEIQKDhBBgATJp0k/bxZYn280z58XXUEcYAIIIqPiEAAQi0lEBOA4AVtY8iVsXzZX4pLbW/TmwMADokeIQABCAAgb4J5DQAiEqARWf8F4XtBSi8jkBqi2p/6jjxBwEIQAACGRBgAFD8kr+iu/NpFfxZ0cIlyjEAKAGLohCAAAQgMD6BnAYAPgUQYb8LcBrhM6r9Ac3HJQQgAAEI1J1ATgOAh4JgRlxaGOHzj0Htxy0EIAABCLSQQE4DAN+QJ8KKLvtbtO41VDDicP2DRQOgHAQgAAEIQGAiAjkNAHxDHq+FnNpSDwBS++u0lwFAhwSPEIAABCDQN4GcBgDPqbUR6+3vJL++7Wkqi7pxDwOAVHsIPxCAAAQgMCmnAYB3l5fsTW1ry+FnEjn1r/8jEvka7WbkLYlHf8ZrCEAAAhCAQCkCuQ0AImbXG9hHpVeXIrdoYR9FOENaYtGPkrwTMfhJEhhOIAABCEAgPwK5DQCuDkLspH2GNKUP//+kbTfpY/vxNr1NH84arwCfQQACEIAABMoQyG0AcFGZxpUsu5HK3y6VPRKwsrbxrYSPlqIsst1RMeMXAhCAAARqTsAz61PrwMA2/zQg3pHtf0H+Py8VmRi4t8p5ct7I7SOeb6o6MAhAAAIQaCcB59TkuWVyhiz9a/hVgXH7dMAx0sHSdZJv7uP7BdwlecKgJ/pZ2w1LD6F2r7zfHVoDziEAAQhAoHUEch0AHFvBnnKy9yDAGqRx+H+Q9Ntb9yvV9J2lraWtpC2kZSUMAnUn8JQC/LHkU7qeP3Wt5B9SWBcCyQ8rqI7IUwCLyf/9UkTcdfT52i77jLcgEEXAPwr+QXpOquP/AzGxX8r2Afdl9+kcf/Aq7HkWcgogt0mAJuGd/4V5SJr/x6cgrm9+M2lhTQhsrDhukI6XlqxJTIQBgX4JuC+7T7tvu49jwwRyHAA49FOkXw23ockPH2ty42hbrQj4i9GHS7etVVQEA4F0BNy33ccZBAwzzXUA8LziP3a4DU19OFcNm9HUxtGuWhFYQtGcKU2pVVQEA4H0BNzH3dfd51tvuQ4AvOPOk25u6B5swwCnobsuy2b5qhd++We56wi6BwLu6+7zrbecBwDeeZGL7wyyc5ykyn89yACouzUE1lFLP92a1tJQCPyZgPu8+36rLfcBwDXae99s2B504j+uYW2iOfUl4KtMlqpveEQGgRAC7vPu+6223AcA3nlHSE2ZKf+E2rKX9LiEQaAKAl7UCoNAGwm0vu83YQDgazz3k4Yy78FzFf/B0s8zbwfh50Wg9V+Cee0uok1IoPV9P2oA4MV6qrSHVZnX5Z9dZaWJ6/qE/F2a2CfuIDARgc0mKsDnEGgogZz6fkhO9QDgyYCdu0qAz4lcer38QyT/ks7NzlLAJ+QWNPE2gsD9jWgFjYBAeQI59f2InPqkBwCzynObcIs1JiwRU+ASuX2rlNORgBMV7ztjcOAVAhMS8I2uMAi0kUBOfT8ip85q2gDAndiDgB2lIanO5mv93y99SHqhzoESW6MJ5PQl2OgdQeMqJ5BT32cAUKJ7+HSAb9d7XYltqiz6iCrbXTqlykqpCwJdCDR1Ma0uTeUtCCxEIKe+HzYA8KVnqS0i2LIxemKgk+ypZTcMLn+n/HslqmuD68E9BIoQ8JfgxUUKUgYCDSLgPt/2AcATPgXwh4CdWocBgJvlSwQPl3aSbpIGaQ+p8g9IvvRkSMIgUBcC71Mgj9YlGOKAQDAB93X3+ZwsIqf+wQOAewIorCqf0wL89urSCwXtIB0g/bJXJz1u95S2O15aTzpZ4ny/IGC1IuDB6RG1iohgIBBHwH3dfT4Xcy51Tk1t83L/QfL6YoA8wa2O5ntDf1DyJSAR7e74dOL/hrSGhEEgBwJHKkj3204f5hEWTeoD7ttH5fCPOCpG59KI/eDcP2nLIOeX23mNzQsr+HC8f53fJaUA7FGl702wj7SshEEgNwLrK2AfMUvx/4APONalD9yoPr1hbv+Mw/E6l0Zw3NJJcDnJawGkXmnI59992CJikqHcJrdXyKNXE9xFWlPyYZfVpcnSaPPO8HmkB4b1Yz368sMZUo4LESlsDALzCfjU4LulPSRPWF1XwiCQG4EhBexL/f5X8mTwOVJutqIC9oT21Dfscg5boZP0f60Xr5RSmw8xnJPaaYX+/EXYmc+wmp7PlJz0H5Q8wMEg0AYCXoXMRwqXb0NjaWP2BLwQnH+U+XLr3O1ANeDsgEbcK59/0fH7LT2JOMSQc/LvsOERAhCAAAQgMAgCzqERudk5f769Xc8iKvGkCx9KxyAAAQhAAAIQKE7AuTNqUq5z/nzzOe+IAYB9nja/Fp5AAAIQgAAEIFCEgHNnVF52zl/I7tGriMpekN9NFqqJFxCAAAQgAAEIjEXAOdO5MyInO9fPM09y69gPOk8SPy4hf19I7BN3EIAABCAAgaYScM507oywrrn+NaopYrTR8blLREvwCQEIQAACEGgQAefKTt6MeHSu72q+HDCiQvu8TUp9LWPXRvAmBCAAAQhAIEMCzpHOlVF52Dl+vo08BeA3z5r/SfonW8nliend4hECEIAABCDQCALOkc6VUTZujl9PtUaNPDp+vd44BgEIQAACEIDAAgLOjZ08GfXoHD+uXaNPoyq3X89s3H3cCPgQAhCAAAQg0B4CzolRs/47+dy5fULbUyU6G0Q9/kl1TDgSmTBSCkAAAhCAAATyJuBc6JwYlW87fp3bC5lvoNDZKOrxl6qDQUCh3UEhCEAAAhBoIAHnQOfCqDzb8eucXtjeqpKdDSMfPerZvXBUFIQABCAAAQg0g4BzXxW//J3DndMLm+8S+BMpMvl3fPu8x5GFI6MgBCAAAQhAIG8CznnR5/w7Oda5vHPn38LU3qySHQdVPJ6q+lgnoPDuoSAEIAABCGRGwDnOua6KnNqpw7m8J/uutuo4qeLRCyBM7ylSNoIABCAAAQjUl8B0hRa5yE+3HO0c3rOtpS1nSd0cR753qerctOeo2RACEIAABCBQDwLOZc5pkTmzm2/nbufwvuwj2rqb8+j35qje06W+G9BX69kYAhCAAAQgUJ6Ac5dzmHNZdL7s5t+5u2+bLA8zpG4VVPHe06r7Aukd0soSBgEIQAACEKgjAeco5yrnLOeuKnJktzqcs527k9g0efm91K2iKt97QTFcJR0lrSthEIAABCAAgUESWFeVOyc5NzlHVZkTu9XlXO2cPaGVuTRgG3m7VpoyodfqCsxUVQ900cN6z2AwCEAAAhCAQL8EnCtXlZxYR2ulfp0n3N5HHXaWCi38U2YA4BgPkv7LTzAIQAACEIAABGpF4GBFc3bRiJYoWnC4nBcUWFLyCAODAAQgAAEIQKAeBP5ZYXy1TChljwDYt7fxBId9/QKDAAQgAAEIQGCgBC5S7ftJpU599zIAcCuXl34kbeYXGAQgAAEIQAACAyFwl2p9jTS7bO29DgBczzrSLZInRmAQgAAEIAABCFRLwBPet5Xu66XaxXvZaHgbV7iX5AAwCEAAAhCAAASqI+Dc6xzcU/J3mP0MALy9FxvYTrrbLzAIQAACEIAABMIJOOc69zoH92z9DgBc8ZC0o3SJhEEAAhCAAAQgEEfAudY5d6jfKspeBjhWfc/pg3OlZaTXjlWI9yEAAQhAAAIQ6JnAF7Tl4dKzPXsYsWE/kwBHuFno6dv16jRp6YXe5QUEIAABCEAAAr0QcMJ/j3RWLxuPtU3EAMB1bS9dKK3uFxgEIAABCEAAAj0R+IO2eqt0U09bj7NR1ADAVa4teXGCrfwCgwAEIAABCECgFIHbVdqL7t1faquChVNMAhyrKgfsIwFHS6UXKBjLKe9DAAIQgAAEGk7AOdO50zk0JPmbX+QRAPvv2Fp68mXprzpv8AgBCEAAAhCAwCIEztM7fy/9bpFPEr8ReQRgZKhuyNukPSQf0sAgAAEIQAACEFhAwLnROdK5Mjz5u9qqBgCuy/ZDaWvpTZLvJYBBAAIQgAAE2kzAudA50bnRObIyq+oUwFgNmq4PPiF51DPoWBQCBgEIQAACEAgn4Lv2/UD6nHS1NBCrS9L1jYX+RnqHtP5ASFApBCAAAQhAIJbAL+X+29J/SPfFVjWx97oMAEZGuoNeHCL5qMAGIz/gOQQgAAEIQCAzAv+neP1r/z+lG+sUex0HACP5+OqB10m7StOldSUMAhCAAAQgUFcCQwrsaulK6Sqpkgl9qqe01X0AMLpBy+uNDUdoIz1fTVphlJbTawwCEIAABCCQisCTcjRrlB7S619I94xQNuve/H/PP2a4ys206AAAAABJRU5ErkJggg==;" vertex="1" parent="1">
          <mxGeometry x="800" y="400" width="120" height="120" as="geometry" />
        </mxCell>
        <mxCell id="opDxLnZaXLkhxpy1dngz-2" value="FastAPI Server" style="whiteSpace=wrap;html=1;fillColor=none;strokeColor=none;" vertex="1" parent="1">
          <mxGeometry x="760" y="520" width="200" height="30" as="geometry" />
        </mxCell>
        <mxCell id="opDxLnZaXLkhxpy1dngz-3" value="AudioLDM&lt;br&gt;Pipeline" style="rounded=1;whiteSpace=wrap;html=1;" vertex="1" parent="1">
          <mxGeometry x="820" y="330" width="80" height="60" as="geometry" />
        </mxCell>
        <mxCell id="opDxLnZaXLkhxpy1dngz-21" value="Synthesizer&lt;br&gt;Instanz" style="rounded=1;whiteSpace=wrap;html=1;" vertex="1" parent="1">
          <mxGeometry x="820" y="680" width="80" height="60" as="geometry" />
        </mxCell>
        <mxCell id="opDxLnZaXLkhxpy1dngz-38" value="" style="endArrow=classic;html=1;rounded=0;exitX=0.5;exitY=0;exitDx=0;exitDy=0;entryX=0.5;entryY=1;entryDx=0;entryDy=0;strokeWidth=4;" edge="1" parent="1" source="opDxLnZaXLkhxpy1dngz-21" target="opDxLnZaXLkhxpy1dngz-2">
          <mxGeometry width="50" height="50" relative="1" as="geometry">
            <mxPoint x="840" y="580" as="sourcePoint" />
            <mxPoint x="890" y="530" as="targetPoint" />
          </mxGeometry>
        </mxCell>
        <mxCell id="opDxLnZaXLkhxpy1dngz-39" value="Synthesizer&lt;br&gt;Instanz" style="rounded=1;whiteSpace=wrap;html=1;" vertex="1" parent="1">
          <mxGeometry x="980" y="630" width="80" height="60" as="geometry" />
        </mxCell>
        <mxCell id="opDxLnZaXLkhxpy1dngz-40" value="" style="endArrow=classic;html=1;rounded=0;exitX=0.5;exitY=0;exitDx=0;exitDy=0;strokeWidth=4;" edge="1" parent="1" source="opDxLnZaXLkhxpy1dngz-39" target="opDxLnZaXLkhxpy1dngz-2">
          <mxGeometry width="50" height="50" relative="1" as="geometry">
            <mxPoint x="960" y="555" as="sourcePoint" />
            <mxPoint x="980" y="525" as="targetPoint" />
          </mxGeometry>
        </mxCell>
        <mxCell id="opDxLnZaXLkhxpy1dngz-41" value="Synthesizer&lt;br&gt;Instanz" style="rounded=1;whiteSpace=wrap;html=1;" vertex="1" parent="1">
          <mxGeometry x="660" y="630" width="80" height="60" as="geometry" />
        </mxCell>
        <mxCell id="opDxLnZaXLkhxpy1dngz-42" value="" style="endArrow=classic;html=1;rounded=0;exitX=0.5;exitY=0;exitDx=0;exitDy=0;strokeWidth=4;" edge="1" parent="1" source="opDxLnZaXLkhxpy1dngz-41" target="opDxLnZaXLkhxpy1dngz-2">
          <mxGeometry width="50" height="50" relative="1" as="geometry">
            <mxPoint x="740" y="600" as="sourcePoint" />
            <mxPoint x="605" y="520" as="targetPoint" />
          </mxGeometry>
        </mxCell>
      </root>
    </mxGraphModel>
  </diagram>
</mxfile>
